<svg width="2742" height="100" viewBox="0 0 2742 100" fill="none" xmlns="http://www.w3.org/2000/svg">
<g clip-path="url(#clip0_5637_188513)">
<rect y="1" width="2742" height="99" fill="url(#paint0_radial_5637_188513)"/>
<path d="M2896.19 156.475C2985.19 637.663 1741.57 603.943 1735.19 561.19C1670 124.217 1143 285.523 1082.82 285.523C1016.98 285.522 1376.32 186.018 1549 242.534C1643.05 273.314 1775.19 327.268 1967.19 327.268C1982.12 327.268 2276.59 326.401 2347.19 282.713C2387.19 257.961 2371.5 282.713 2404.69 304.99C2446.82 333.275 2751.19 309.941 2896.19 156.475ZM2277.09 -803.037C2565.03 -837.532 2750.17 -560.526 2767.82 -505.53C2788.16 -442.106 2751.23 -509.743 2767.82 -442.511C2774.43 -415.718 2795.74 -434.442 2789.91 -247.005C2779.46 89.4391 2671.45 -41.9029 2619.82 17.6216C2589.79 56.4577 2546.88 150.143 2476.06 191.667C2359.09 260.251 2412.67 97.8523 2354.51 155.435C2292.43 216.901 2169.58 228.712 2070.25 228.712C1652.86 228.712 1474.93 -39.3357 954.106 4.76709C457.463 46.8227 96.9064 462.326 55.083 515.381C-6.06373 421.054 -36.9403 337.936 -68.1104 229.811C110.011 3.26172 441.086 -24.5976 350.494 34.9644C324.198 52.2531 307.386 64.6177 297.789 73.186C490.166 -3.78141 716.36 -50.332 877.683 -56.6997C1311.56 -73.8256 1458.73 2.22309 1640.86 30.0435C1823 57.8638 2008.48 72.7149 2195.5 -22.8296C2382.51 -118.374 2453 -295.729 2468 -297.086C2483 -298.444 2495.96 -305.388 2509 -297.086C2530 -283.72 2476.49 -263.989 2498.28 -247.005C2535.52 -217.975 2464.3 -127.955 2498.28 -127.955C2552.52 -127.955 2544.56 -172.559 2562.97 -258.652C2599.53 -429.547 2484.95 -569.273 2366.93 -621.919C2219.78 -687.557 2099.65 -683.738 2070.25 -698.62C2040.84 -713.501 2095.13 -767.307 2118.13 -781.638C2181.34 -821.021 2232.4 -797.683 2277.09 -803.037ZM997.144 52.978C1202.52 18.5034 1583.5 132.719 1433.96 132.545C1284.42 132.372 1212.92 149.572 1145.68 215.148C1061.06 297.68 841.662 210.633 834.659 237.292L721.002 229.431C721.078 229.279 791.88 87.4342 997.144 52.978ZM53.8291 0.906738C208.796 -46.201 338.237 -37.264 293.523 -31.2632C248.81 -25.2624 94.5911 13.7537 22.9902 52.4517C-18.362 74.8013 -39.3955 82.7678 -41.6768 61.1304C-43.9584 39.4932 -76.1181 40.4089 53.8291 0.906738ZM-78.998 -277.523C-63.1196 -290.074 485.009 -275.492 503.065 -277.523C542.175 -281.923 473.909 -252.114 593.3 -268.804C1040.27 -331.289 1300.5 -120.644 1201.5 -152.917C1102.5 -185.189 843.923 -223.288 701.868 -196.899C465.107 -152.916 362.47 -116.824 346.423 -152.917C335.542 -177.386 95.0015 -154.59 -91.998 -90.6343C-149.979 -104.379 -84.1114 -273.481 -78.998 -277.523Z" fill="url(#paint1_radial_5637_188513)"/>
<path d="M798.104 78.0769C947.344 42.7001 1173.11 44.4701 1173.53 53.1003C1174.37 70.7697 900.255 54.6844 849.479 170.006C846.49 176.77 601.489 169.883 601.184 163.677C600.213 143.411 672.956 107.743 798.104 78.0769ZM0.499023 85.4998C143.499 18.0003 183.999 17.0012 149.999 31.5007C115.998 46.0003 32.0004 89.4999 10.998 128.001C5.189 138.65 0.499329 134.001 -9.00195 134.001C-43.3436 134.001 -119.752 142.261 0.499023 85.4998ZM2086.94 -16.4065C2198.25 -47.5515 2185.25 -29.8394 2149.25 -18.468C2001.78 28.1144 1876.71 49.7106 1732.14 24.4832C1706.39 19.9908 1707.41 7.33462 1727.71 8.56421C1817.02 13.9745 1854.75 22.1555 1849.7 -1.24146C1844.64 -24.6386 1975.63 14.7389 2086.94 -16.4065Z" fill="#262831"/>
<path d="M3031.56 -15.4136L3033.53 -16.1204L2803.85 -47.4031C2803.85 -47.4031 2630.77 60.7574 2570.66 248.595C2558.41 286.857 2573.28 324.588 2618.47 257.402C2663.67 190.215 2746.87 124.536 2822.63 79.5108C2907.3 29.1873 2954.62 12.2018 3031.56 -15.4136Z" fill="#262831"/>
<path d="M223.506 150.437C322.001 94.8779 517 54.8922 460.502 85.0898C404.002 115.288 339.367 134.97 308.501 150.437C268.323 170.571 264.503 176.759 223.506 212.816C182.509 248.874 125.511 300.519 83.231 300.518C40.9508 300.518 -51.5535 396.807 -39.9789 353.923C-28.4032 311.038 137.501 198.952 223.506 150.437ZM2271.72 60.9462C2448.27 -44.9932 2438.81 -119.514 2459.08 -94.086C2470.87 -79.2967 2440.9 -46.2959 2430.88 -33.0753C2420.87 -19.8546 2420.76 36.2196 2406.82 41.5194C2376.63 52.9987 2414.83 -2.61851 2333.25 52.9989C2183.09 155.364 1865.39 155.637 1940.5 125.891C2002.26 129.197 2170.18 121.878 2271.72 60.9462ZM2607.02 -537.557C2532.05 -624.829 2354.55 -709.304 2400.32 -693.992C2449.55 -677.524 2768.73 -529.673 2721.58 -282.89C2650.34 38.6127 2541.81 33.7777 2550.3 17.8583C2560.71 -1.6724 2618.46 -57.7177 2644.97 -122.685C2686.03 -223.285 2690.33 -364.364 2675.81 -351.986C2651.9 -331.612 2681.99 -450.284 2607.02 -537.557Z" fill="url(#paint2_radial_5637_188513)"/>
</g>
<defs>
<radialGradient id="paint0_radial_5637_188513" cx="0" cy="0" r="1" gradientUnits="userSpaceOnUse" gradientTransform="translate(1371 50.5) scale(1432.5 185.805)">
<stop stop-color="#17171F"/>
<stop offset="1" stop-color="#13131A"/>
</radialGradient>
<radialGradient id="paint1_radial_5637_188513" cx="0" cy="0" r="1" gradientTransform="matrix(1360.49 -4.95058 10.7443 2894.52 1392.51 58.3594)" gradientUnits="userSpaceOnUse">
<stop stop-color="#16161E"/>
<stop offset="0.615385" stop-color="#1C1C26" stop-opacity="0.6"/>
<stop offset="1" stop-color="#20212C" stop-opacity="0.8"/>
</radialGradient>
<radialGradient id="paint2_radial_5637_188513" cx="0" cy="0" r="1" gradientTransform="matrix(1406 2.47522 -4.469 2488.51 1343 56.8734)" gradientUnits="userSpaceOnUse">
<stop offset="0.298077" stop-color="#1B1C24"/>
<stop offset="1" stop-color="#13131A"/>
</radialGradient>
<clipPath id="clip0_5637_188513">
<rect width="2742" height="100" fill="white"/>
</clipPath>
</defs>
</svg>
